<?xml version="1.0" encoding="UTF-8" standalone="no"?>
<!-- Created with Inkscape (http://www.inkscape.org/) -->

<svg
   xmlns:dc="http://purl.org/dc/elements/1.1/"
   xmlns:cc="http://creativecommons.org/ns#"
   xmlns:rdf="http://www.w3.org/1999/02/22-rdf-syntax-ns#"
   xmlns:svg="http://www.w3.org/2000/svg"
   xmlns="http://www.w3.org/2000/svg"
   xmlns:sodipodi="http://sodipodi.sourceforge.net/DTD/sodipodi-0.dtd"
   xmlns:inkscape="http://www.inkscape.org/namespaces/inkscape"
   width="65"
   height="65"
   viewBox="0 0 65.000001 65.000001"
   id="svg2"
   version="1.1"
   inkscape:version="0.91 r13725"
   sodipodi:docname="circulo_mais.svg">
  <defs
     id="defs4" />
  <sodipodi:namedview
     id="base"
     pagecolor="#ffffff"
     bordercolor="#666666"
     borderopacity="1.0"
     inkscape:pageopacity="0.0"
     inkscape:pageshadow="2"
     inkscape:zoom="3.6505524"
     inkscape:cx="-0.79545403"
     inkscape:cy="38.92983"
     inkscape:document-units="px"
     inkscape:current-layer="g4159"
     showgrid="false"
     units="px"
     inkscape:window-width="1535"
     inkscape:window-height="876"
     inkscape:window-x="65"
     inkscape:window-y="24"
     inkscape:window-maximized="1" />
  <metadata
     id="metadata7">
    <rdf:RDF>
      <cc:Work
         rdf:about="">
        <dc:format>image/svg+xml</dc:format>
        <dc:type
           rdf:resource="http://purl.org/dc/dcmitype/StillImage" />
        <dc:title />
      </cc:Work>
    </rdf:RDF>
  </metadata>
  <g
     inkscape:label="Camada 1"
     inkscape:groupmode="layer"
     id="layer1"
     transform="translate(0,-987.36216)">
    <circle
       style="fill:#008000;fill-opacity:1;stroke:none;stroke-width:1.10000002;stroke-linecap:butt;stroke-linejoin:round;stroke-miterlimit:4;stroke-dasharray:none;stroke-opacity:1"
       id="path4136"
       cx="32.5"
       cy="1019.8622"
       r="30" />
    <g
       id="g4159"
       style="fill:#ffffff">
      <g
         id="g5394"
         transform="matrix(0.08012448,0,0,0.08012448,13.938924,1001.3011)"
         style="fill:#ffffff;stroke-width:2.49611592;stroke-miterlimit:4;stroke-dasharray:none">
        <g
           id="g5354"
           style="fill:#ffffff;stroke-width:2.49611592;stroke-miterlimit:4;stroke-dasharray:none">
          <path
             id="path5356"
             d="m 269.534,399.201 c -9.616,0 -17.483,7.867 -17.483,17.483 0,9.616 7.867,17.483 17.483,17.483 l 160.263,0 c 9.616,0 17.483,-7.867 17.483,-17.483 l 0,-278.275 c 0,-4.954 -2.04,-9.616 -5.536,-12.821 L 310.62,4.662 C 307.414,1.748 303.043,0 298.673,0 L 103.443,0 C 93.827,0 85.96,7.867 85.96,17.483 l 0,189.402 c 0,9.616 7.867,17.483 17.483,17.483 9.616,0 17.483,-7.867 17.483,-17.483 l 0,-171.918 139.866,0 0,151.522 c 0,9.616 7.867,17.483 17.483,17.483 l 131.125,0 c 0.874,0 2.04,0 2.914,-0.291 l 0,195.521 -142.78,0 z M 409.4,169.005 l -113.641,0 0,-130.542 116.555,107.522 0,23.311 c -0.874,-0.291 -2.04,-0.291 -2.914,-0.291 z M 16.026,372.977 c 0,-9.616 7.867,-17.483 17.483,-17.483 l 52.45,0 0,-55.364 c 0,-9.616 7.867,-17.483 17.483,-17.483 9.616,0 17.483,7.867 17.483,17.483 l 0,55.364 58.278,0 c 9.616,0 17.483,7.867 17.483,17.483 0,9.616 -7.867,17.483 -17.483,17.483 l -58.278,0 0,55.364 c 0,9.616 -7.867,17.483 -17.483,17.483 -9.616,0 -17.483,-7.867 -17.483,-17.483 l 0,-55.364 -52.449,0 c -9.616,0 -17.484,-7.868 -17.484,-17.483 z"
             inkscape:connector-curvature="0"
             style="fill:#ffffff;stroke-width:2.49611592;stroke-miterlimit:4;stroke-dasharray:none" />
        </g>
        <g
           id="g5358"
           style="fill:#ffffff;stroke-width:2.49611592;stroke-miterlimit:4;stroke-dasharray:none" />
        <g
           id="g5360"
           style="fill:#ffffff;stroke-width:2.49611592;stroke-miterlimit:4;stroke-dasharray:none" />
        <g
           id="g5362"
           style="fill:#ffffff;stroke-width:2.49611592;stroke-miterlimit:4;stroke-dasharray:none" />
        <g
           id="g5364"
           style="fill:#ffffff;stroke-width:2.49611592;stroke-miterlimit:4;stroke-dasharray:none" />
        <g
           id="g5366"
           style="fill:#ffffff;stroke-width:2.49611592;stroke-miterlimit:4;stroke-dasharray:none" />
        <g
           id="g5368"
           style="fill:#ffffff;stroke-width:2.49611592;stroke-miterlimit:4;stroke-dasharray:none" />
        <g
           id="g5370"
           style="fill:#ffffff;stroke-width:2.49611592;stroke-miterlimit:4;stroke-dasharray:none" />
        <g
           id="g5372"
           style="fill:#ffffff;stroke-width:2.49611592;stroke-miterlimit:4;stroke-dasharray:none" />
        <g
           id="g5374"
           style="fill:#ffffff;stroke-width:2.49611592;stroke-miterlimit:4;stroke-dasharray:none" />
        <g
           id="g5376"
           style="fill:#ffffff;stroke-width:2.49611592;stroke-miterlimit:4;stroke-dasharray:none" />
        <g
           id="g5378"
           style="fill:#ffffff;stroke-width:2.49611592;stroke-miterlimit:4;stroke-dasharray:none" />
        <g
           id="g5380"
           style="fill:#ffffff;stroke-width:2.49611592;stroke-miterlimit:4;stroke-dasharray:none" />
        <g
           id="g5382"
           style="fill:#ffffff;stroke-width:2.49611592;stroke-miterlimit:4;stroke-dasharray:none" />
        <g
           id="g5384"
           style="fill:#ffffff;stroke-width:2.49611592;stroke-miterlimit:4;stroke-dasharray:none" />
        <g
           id="g5386"
           style="fill:#ffffff;stroke-width:2.49611592;stroke-miterlimit:4;stroke-dasharray:none" />
      </g>
    </g>
  </g>
</svg>
