<?xml version="1.0" encoding="UTF-8" standalone="no"?>
<!-- Created with Inkscape (http://www.inkscape.org/) -->

<svg
   xmlns:dc="http://purl.org/dc/elements/1.1/"
   xmlns:cc="http://creativecommons.org/ns#"
   xmlns:rdf="http://www.w3.org/1999/02/22-rdf-syntax-ns#"
   xmlns:svg="http://www.w3.org/2000/svg"
   xmlns="http://www.w3.org/2000/svg"
   xmlns:sodipodi="http://sodipodi.sourceforge.net/DTD/sodipodi-0.dtd"
   xmlns:inkscape="http://www.inkscape.org/namespaces/inkscape"
   width="65"
   height="65"
   viewBox="0 0 65.000001 65.000001"
   id="svg2"
   version="1.1"
   inkscape:version="0.91 r13725"
   sodipodi:docname="circulo_pesquisar.svg">
  <defs
     id="defs4" />
  <sodipodi:namedview
     id="base"
     pagecolor="#ffffff"
     bordercolor="#666666"
     borderopacity="1.0"
     inkscape:pageopacity="0.0"
     inkscape:pageshadow="2"
     inkscape:zoom="1.6658116"
     inkscape:cx="14.399068"
     inkscape:cy="29.866666"
     inkscape:document-units="px"
     inkscape:current-layer="layer1"
     showgrid="false"
     units="px"
     inkscape:window-width="1535"
     inkscape:window-height="876"
     inkscape:window-x="65"
     inkscape:window-y="24"
     inkscape:window-maximized="1" />
  <metadata
     id="metadata7">
    <rdf:RDF>
      <cc:Work
         rdf:about="">
        <dc:format>image/svg+xml</dc:format>
        <dc:type
           rdf:resource="http://purl.org/dc/dcmitype/StillImage" />
        <dc:title></dc:title>
      </cc:Work>
    </rdf:RDF>
  </metadata>
  <g
     inkscape:label="Camada 1"
     inkscape:groupmode="layer"
     id="layer1"
     transform="translate(0,-987.36216)">
    <circle
       style="fill:#808080;fill-opacity:1;stroke:none;stroke-width:1.10000002;stroke-linecap:butt;stroke-linejoin:round;stroke-miterlimit:4;stroke-dasharray:none;stroke-opacity:1"
       id="path4136"
       cx="32.5"
       cy="1019.8622"
       r="30" />
    <g
       id="g4369"
       transform="matrix(0.11144539,0,0,0.11144539,13.000048,1000.3622)"
       style="fill:#ffffff">
      <g
         id="g4327"
         style="fill:#ffffff">
        <path
           id="path4329"
           d="m 24.323,349.947 c 5.545,0 11.094,-2.138 15.3,-6.389 L 168.762,213.025 c 18.075,11.674 39.536,18.531 62.6,18.531 63.843,0 115.778,-51.941 115.778,-115.778 C 347.14,51.941 295.211,0 231.362,0 167.52,0 115.587,51.941 115.587,115.778 c 0,25.235 8.208,48.546 21.969,67.59 L 9.026,313.294 c -8.356,8.448 -8.284,22.073 0.165,30.433 4.194,4.148 9.659,6.22 15.132,6.22 z M 231.362,43.042 c 40.106,0 72.736,32.633 72.736,72.736 0,40.103 -32.63,72.735 -72.736,72.735 -40.101,0 -72.733,-32.633 -72.733,-72.735 0,-40.103 32.633,-72.736 72.733,-72.736 z"
           inkscape:connector-curvature="0"
           style="fill:#ffffff" />
        <path
           id="path4331"
           d="m 188.074,115.778 c 0,-23.869 19.419,-43.289 43.288,-43.289 5.098,0 9.224,-4.125 9.224,-9.223 0,-5.099 -4.126,-9.224 -9.224,-9.224 -34.035,0 -61.735,27.694 -61.735,61.735 0,5.098 4.128,9.223 9.224,9.223 5.097,0.001 9.223,-4.124 9.223,-9.222 z"
           inkscape:connector-curvature="0"
           style="fill:#ffffff" />
      </g>
      <g
         id="g4333"
         style="fill:#ffffff" />
      <g
         id="g4335"
         style="fill:#ffffff" />
      <g
         id="g4337"
         style="fill:#ffffff" />
      <g
         id="g4339"
         style="fill:#ffffff" />
      <g
         id="g4341"
         style="fill:#ffffff" />
      <g
         id="g4343"
         style="fill:#ffffff" />
      <g
         id="g4345"
         style="fill:#ffffff" />
      <g
         id="g4347"
         style="fill:#ffffff" />
      <g
         id="g4349"
         style="fill:#ffffff" />
      <g
         id="g4351"
         style="fill:#ffffff" />
      <g
         id="g4353"
         style="fill:#ffffff" />
      <g
         id="g4355"
         style="fill:#ffffff" />
      <g
         id="g4357"
         style="fill:#ffffff" />
      <g
         id="g4359"
         style="fill:#ffffff" />
      <g
         id="g4361"
         style="fill:#ffffff" />
    </g>
  </g>
</svg>
