<?xml version="1.0" encoding="UTF-8" standalone="no"?>
<!-- Created with Inkscape (http://www.inkscape.org/) -->

<svg
   xmlns:dc="http://purl.org/dc/elements/1.1/"
   xmlns:cc="http://creativecommons.org/ns#"
   xmlns:rdf="http://www.w3.org/1999/02/22-rdf-syntax-ns#"
   xmlns:svg="http://www.w3.org/2000/svg"
   xmlns="http://www.w3.org/2000/svg"
   xmlns:sodipodi="http://sodipodi.sourceforge.net/DTD/sodipodi-0.dtd"
   xmlns:inkscape="http://www.inkscape.org/namespaces/inkscape"
   width="65"
   height="65"
   viewBox="0 0 65.000001 65.000001"
   id="svg2"
   version="1.1"
   inkscape:version="0.91 r13725"
   sodipodi:docname="circulo_excluir.svg">
  <defs
     id="defs4" />
  <sodipodi:namedview
     id="base"
     pagecolor="#ffffff"
     bordercolor="#666666"
     borderopacity="1.0"
     inkscape:pageopacity="0.0"
     inkscape:pageshadow="2"
     inkscape:zoom="9.4232535"
     inkscape:cx="-20.588587"
     inkscape:cy="38.356303"
     inkscape:document-units="px"
     inkscape:current-layer="layer1"
     showgrid="false"
     units="px"
     inkscape:window-width="1600"
     inkscape:window-height="876"
     inkscape:window-x="1600"
     inkscape:window-y="24"
     inkscape:window-maximized="1" />
  <metadata
     id="metadata7">
    <rdf:RDF>
      <cc:Work
         rdf:about="">
        <dc:format>image/svg+xml</dc:format>
        <dc:type
           rdf:resource="http://purl.org/dc/dcmitype/StillImage" />
        <dc:title />
      </cc:Work>
    </rdf:RDF>
  </metadata>
  <g
     inkscape:label="Camada 1"
     inkscape:groupmode="layer"
     id="layer1"
     transform="translate(0,-987.36216)">
    <circle
       style="fill:#ff0000;fill-opacity:1;stroke:none;stroke-width:1.10000002;stroke-linecap:butt;stroke-linejoin:round;stroke-miterlimit:4;stroke-dasharray:none;stroke-opacity:1"
       id="path4136"
       cx="32.5"
       cy="1019.8622"
       r="30" />
    <g
       id="g4629"
       transform="matrix(0.04636569,0,0,0.04636569,15.037916,1002.4002)"
       style="fill:#ffffff">
      <g
         id="g4586"
         style="fill:#ffffff">
        <g
           id="_x34__18_"
           style="fill:#ffffff">
          <g
             id="g4589"
             style="fill:#ffffff">
            <path
               id="path4591"
               d="m 635.538,94.154 -141.23,0 0,-47.077 C 494.308,21.067 473.24,0 447.23,0 L 306,0 c -26.01,0 -47.077,21.067 -47.077,47.077 l 0,47.077 -141.23,0 c -26.01,0 -47.077,21.067 -47.077,47.077 l 0,47.077 c 0,25.986 21.067,47.053 47.03,47.077 l 517.917,0 c 25.986,-0.024 47.054,-21.091 47.054,-47.077 l 0,-47.078 C 682.615,115.221 661.548,94.154 635.538,94.154 Z m -188.308,0 -141.23,0 0,-23.539 c 0,-12.993 10.545,-23.539 23.538,-23.539 l 94.154,0 c 12.993,0 23.538,10.545 23.538,23.539 l 0,23.539 z M 117.692,659.077 c 0,51.996 42.157,94.153 94.154,94.153 l 329.539,0 c 51.996,0 94.153,-42.157 94.153,-94.153 l 0,-376.616 -517.846,0 0,376.616 z m 353.078,-306 c 0,-12.993 10.545,-23.539 23.538,-23.539 12.993,0 23.538,10.545 23.538,23.539 l 0,282.461 c 0,12.993 -10.545,23.539 -23.538,23.539 -12.993,0 -23.538,-10.546 -23.538,-23.539 l 0,-282.461 z m -117.693,0 c 0,-12.993 10.545,-23.539 23.539,-23.539 12.994,0 23.538,10.545 23.538,23.539 l 0,282.461 c 0,12.993 -10.545,23.539 -23.538,23.539 -12.993,0 -23.539,-10.546 -23.539,-23.539 l 0,-282.461 z m -117.693,0 c 0,-12.993 10.545,-23.539 23.539,-23.539 12.994,0 23.539,10.545 23.539,23.539 l 0,282.461 c 0,12.993 -10.545,23.539 -23.539,23.539 -12.994,0 -23.539,-10.546 -23.539,-23.539 l 0,-282.461 z"
               inkscape:connector-curvature="0"
               style="fill:#ffffff" />
          </g>
        </g>
      </g>
      <g
         id="g4593"
         style="fill:#ffffff" />
      <g
         id="g4595"
         style="fill:#ffffff" />
      <g
         id="g4597"
         style="fill:#ffffff" />
      <g
         id="g4599"
         style="fill:#ffffff" />
      <g
         id="g4601"
         style="fill:#ffffff" />
      <g
         id="g4603"
         style="fill:#ffffff" />
      <g
         id="g4605"
         style="fill:#ffffff" />
      <g
         id="g4607"
         style="fill:#ffffff" />
      <g
         id="g4609"
         style="fill:#ffffff" />
      <g
         id="g4611"
         style="fill:#ffffff" />
      <g
         id="g4613"
         style="fill:#ffffff" />
      <g
         id="g4615"
         style="fill:#ffffff" />
      <g
         id="g4617"
         style="fill:#ffffff" />
      <g
         id="g4619"
         style="fill:#ffffff" />
      <g
         id="g4621"
         style="fill:#ffffff" />
    </g>
  </g>
</svg>
